<mxfile host="app.diagrams.net" modified="2023-05-27T20:56:44.936Z" agent="Mozilla/5.0 (Windows NT 10.0; Win64; x64) AppleWebKit/537.36 (KHTML, like Gecko) Chrome/113.0.0.0 Safari/537.36" etag="S3tkyQKqNyLOk4EaVPaq" version="21.3.2" type="device">
  <diagram id="UdxZ_-akryXsySf2juUY" name="WhiteDiagram">
    <mxGraphModel dx="1297" dy="482" grid="1" gridSize="10" guides="1" tooltips="1" connect="1" arrows="1" fold="1" page="1" pageScale="1" pageWidth="850" pageHeight="1100" math="0" shadow="0">
      <root>
        <mxCell id="0" />
        <mxCell id="1" parent="0" />
        <mxCell id="dIHybOWJR_WHU6xol9Fc-5" value="" style="rounded=0;whiteSpace=wrap;html=1;" parent="1" vertex="1">
          <mxGeometry x="1350" y="50" width="500" height="444" as="geometry" />
        </mxCell>
        <mxCell id="CLvzxZcf5yE5PqEASKck-112" value="" style="rounded=0;whiteSpace=wrap;html=1;" parent="1" vertex="1">
          <mxGeometry x="60" y="50" width="1270" height="1020" as="geometry" />
        </mxCell>
        <mxCell id="CLvzxZcf5yE5PqEASKck-2" value="&lt;b&gt;Store&lt;/b&gt;" style="shape=umlFrame;whiteSpace=wrap;html=1;pointerEvents=0;width=80;height=20;" parent="1" vertex="1">
          <mxGeometry x="660" y="650" width="660" height="398" as="geometry" />
        </mxCell>
        <mxCell id="CLvzxZcf5yE5PqEASKck-4" value="&lt;b&gt;Transaction&lt;/b&gt;" style="shape=umlFrame;whiteSpace=wrap;html=1;pointerEvents=0;width=80;height=20;" parent="1" vertex="1">
          <mxGeometry x="410" y="650" width="230" height="400" as="geometry" />
        </mxCell>
        <mxCell id="CLvzxZcf5yE5PqEASKck-3" value="&lt;b&gt;Shopping Cart&lt;/b&gt;" style="shape=umlFrame;whiteSpace=wrap;html=1;pointerEvents=0;width=95;height=18;" parent="1" vertex="1">
          <mxGeometry x="100" y="448" width="290" height="602" as="geometry" />
        </mxCell>
        <mxCell id="CLvzxZcf5yE5PqEASKck-5" value="Transaction" style="swimlane;fontStyle=1;align=center;verticalAlign=middle;childLayout=stackLayout;horizontal=1;startSize=29;horizontalStack=0;resizeParent=1;resizeParentMax=0;resizeLast=0;collapsible=0;marginBottom=0;html=1;fillColor=#ffe6cc;strokeColor=#d79b00;" parent="1" vertex="1">
          <mxGeometry x="494" y="748" width="106.5" height="55" as="geometry" />
        </mxCell>
        <mxCell id="CLvzxZcf5yE5PqEASKck-6" value="Store" style="swimlane;fontStyle=1;align=center;verticalAlign=middle;childLayout=stackLayout;horizontal=1;startSize=29;horizontalStack=0;resizeParent=1;resizeParentMax=0;resizeLast=0;collapsible=0;marginBottom=0;html=1;fillColor=#ffe6cc;strokeColor=#d79b00;" parent="1" vertex="1">
          <mxGeometry x="945" y="721.5" width="160" height="55" as="geometry" />
        </mxCell>
        <mxCell id="CLvzxZcf5yE5PqEASKck-7" style="edgeStyle=orthogonalEdgeStyle;rounded=0;orthogonalLoop=1;jettySize=auto;html=1;endArrow=none;endFill=0;startArrow=diamondThin;startFill=1;exitX=0.456;exitY=0.045;exitDx=0;exitDy=0;exitPerimeter=0;entryX=1;entryY=0.75;entryDx=0;entryDy=0;" parent="1" source="CLvzxZcf5yE5PqEASKck-6" target="CLvzxZcf5yE5PqEASKck-69" edge="1">
          <mxGeometry relative="1" as="geometry">
            <Array as="points">
              <mxPoint x="1018" y="610" />
              <mxPoint x="830" y="610" />
              <mxPoint x="830" y="370" />
              <mxPoint x="690" y="370" />
            </Array>
            <mxPoint x="810" y="380" as="targetPoint" />
          </mxGeometry>
        </mxCell>
        <mxCell id="CLvzxZcf5yE5PqEASKck-8" value="0..n" style="edgeLabel;html=1;align=center;verticalAlign=middle;resizable=0;points=[];" parent="CLvzxZcf5yE5PqEASKck-7" connectable="0" vertex="1">
          <mxGeometry x="-0.6989" relative="1" as="geometry">
            <mxPoint x="13" y="92" as="offset" />
          </mxGeometry>
        </mxCell>
        <mxCell id="CLvzxZcf5yE5PqEASKck-9" value="&lt;div style=&quot;&quot;&gt;Store owners: 0 .. n&lt;/div&gt;Store managers: 0 .. n&lt;br&gt;Store founders: 1 .. 1" style="edgeLabel;html=1;align=left;verticalAlign=middle;resizable=0;points=[];fontSize=9;" parent="CLvzxZcf5yE5PqEASKck-7" vertex="1" connectable="0">
          <mxGeometry x="0.7843" relative="1" as="geometry">
            <mxPoint x="-51" y="30" as="offset" />
          </mxGeometry>
        </mxCell>
        <mxCell id="CLvzxZcf5yE5PqEASKck-10" value="Product" style="swimlane;fontStyle=1;align=center;verticalAlign=middle;childLayout=stackLayout;horizontal=1;startSize=29;horizontalStack=0;resizeParent=1;resizeParentMax=0;resizeLast=0;collapsible=0;marginBottom=0;html=1;fillColor=#ffe6cc;strokeColor=#d79b00;" parent="1" vertex="1">
          <mxGeometry x="680" y="830" width="100" height="60" as="geometry" />
        </mxCell>
        <mxCell id="CLvzxZcf5yE5PqEASKck-13" value="DiscountRule" style="swimlane;fontStyle=1;align=center;verticalAlign=middle;childLayout=stackLayout;horizontal=1;startSize=29;horizontalStack=0;resizeParent=1;resizeParentMax=0;resizeLast=0;collapsible=0;marginBottom=0;html=1;fillColor=#ffe6cc;strokeColor=#d79b00;" parent="1" vertex="1">
          <mxGeometry x="1104.9999999999998" y="872" width="100" height="59" as="geometry" />
        </mxCell>
        <mxCell id="CLvzxZcf5yE5PqEASKck-14" style="edgeStyle=orthogonalEdgeStyle;rounded=0;orthogonalLoop=1;jettySize=auto;html=1;endArrow=none;endFill=0;startArrow=none;startFill=0;entryX=0.25;entryY=0;entryDx=0;entryDy=0;exitX=0.5;exitY=1;exitDx=0;exitDy=0;" parent="1" source="CLvzxZcf5yE5PqEASKck-6" target="CLvzxZcf5yE5PqEASKck-13" edge="1">
          <mxGeometry relative="1" as="geometry">
            <Array as="points">
              <mxPoint x="1025" y="840" />
              <mxPoint x="1130" y="840" />
            </Array>
            <mxPoint x="1036" y="803" as="sourcePoint" />
            <mxPoint x="1130" y="860" as="targetPoint" />
          </mxGeometry>
        </mxCell>
        <mxCell id="CLvzxZcf5yE5PqEASKck-16" value="&lt;b&gt;Member&lt;/b&gt;" style="shape=umlFrame;whiteSpace=wrap;html=1;pointerEvents=0;width=80;height=20;" parent="1" vertex="1">
          <mxGeometry x="100" y="180" width="1220" height="248" as="geometry" />
        </mxCell>
        <mxCell id="CLvzxZcf5yE5PqEASKck-17" value="" style="edgeStyle=orthogonalEdgeStyle;rounded=0;orthogonalLoop=1;jettySize=auto;html=1;endArrow=none;endFill=0;startArrow=diamondThin;startFill=1;dashed=1;exitX=0;exitY=0.5;exitDx=0;exitDy=0;" parent="1" source="WTCKcHd4t-KQesIwXJe5-13" target="CLvzxZcf5yE5PqEASKck-5" edge="1">
          <mxGeometry relative="1" as="geometry">
            <Array as="points">
              <mxPoint x="400" y="235" />
              <mxPoint x="400" y="778" />
            </Array>
            <mxPoint x="680" y="400" as="sourcePoint" />
            <mxPoint x="210" y="1033" as="targetPoint" />
          </mxGeometry>
        </mxCell>
        <mxCell id="CLvzxZcf5yE5PqEASKck-18" value="0...n" style="edgeLabel;html=1;align=center;verticalAlign=middle;resizable=0;points=[];" parent="CLvzxZcf5yE5PqEASKck-17" connectable="0" vertex="1">
          <mxGeometry x="0.9258" relative="1" as="geometry">
            <mxPoint x="6" y="-10" as="offset" />
          </mxGeometry>
        </mxCell>
        <mxCell id="WTCKcHd4t-KQesIwXJe5-39" value="0...n" style="edgeLabel;html=1;align=center;verticalAlign=middle;resizable=0;points=[];" parent="CLvzxZcf5yE5PqEASKck-17" connectable="0" vertex="1">
          <mxGeometry x="0.9258" relative="1" as="geometry">
            <mxPoint x="142" y="-8" as="offset" />
          </mxGeometry>
        </mxCell>
        <mxCell id="WTCKcHd4t-KQesIwXJe5-40" value="1..n" style="edgeLabel;html=1;align=center;verticalAlign=middle;resizable=0;points=[];" parent="CLvzxZcf5yE5PqEASKck-17" connectable="0" vertex="1">
          <mxGeometry x="0.9258" relative="1" as="geometry">
            <mxPoint x="391" y="92" as="offset" />
          </mxGeometry>
        </mxCell>
        <mxCell id="Jd6QyhjHkUZVPCvQihyt-2" value="1...n" style="edgeLabel;html=1;align=center;verticalAlign=middle;resizable=0;points=[];" parent="CLvzxZcf5yE5PqEASKck-17" connectable="0" vertex="1">
          <mxGeometry x="0.9258" relative="1" as="geometry">
            <mxPoint x="461" y="-28" as="offset" />
          </mxGeometry>
        </mxCell>
        <mxCell id="Jd6QyhjHkUZVPCvQihyt-9" value="1..n" style="edgeLabel;html=1;align=center;verticalAlign=middle;resizable=0;points=[];" parent="CLvzxZcf5yE5PqEASKck-17" connectable="0" vertex="1">
          <mxGeometry x="0.9258" relative="1" as="geometry">
            <mxPoint x="651" y="86" as="offset" />
          </mxGeometry>
        </mxCell>
        <mxCell id="CLvzxZcf5yE5PqEASKck-19" value="ShoppingBasket" style="swimlane;fontStyle=1;align=center;verticalAlign=middle;childLayout=stackLayout;horizontal=1;startSize=29;horizontalStack=0;resizeParent=1;resizeParentMax=0;resizeLast=0;collapsible=0;marginBottom=0;html=1;fillColor=#ffe6cc;strokeColor=#d79b00;" parent="1" vertex="1">
          <mxGeometry x="218.87" y="721.5" width="122.25" height="55" as="geometry" />
        </mxCell>
        <mxCell id="CLvzxZcf5yE5PqEASKck-20" style="edgeStyle=orthogonalEdgeStyle;rounded=0;orthogonalLoop=1;jettySize=auto;html=1;startArrow=diamondThin;startFill=1;endArrow=none;endFill=0;entryX=0.5;entryY=0;entryDx=0;entryDy=0;" parent="1" target="CLvzxZcf5yE5PqEASKck-19" edge="1">
          <mxGeometry relative="1" as="geometry">
            <Array as="points">
              <mxPoint x="280" y="696" />
            </Array>
            <mxPoint x="280" y="550" as="sourcePoint" />
          </mxGeometry>
        </mxCell>
        <mxCell id="CLvzxZcf5yE5PqEASKck-21" value="0 .. n" style="edgeLabel;html=1;align=center;verticalAlign=middle;resizable=0;points=[];" parent="CLvzxZcf5yE5PqEASKck-20" vertex="1" connectable="0">
          <mxGeometry x="0.9327" y="1" relative="1" as="geometry">
            <mxPoint x="15" y="-3" as="offset" />
          </mxGeometry>
        </mxCell>
        <mxCell id="CLvzxZcf5yE5PqEASKck-101" value="1" style="edgeLabel;html=1;align=center;verticalAlign=middle;resizable=0;points=[];" parent="CLvzxZcf5yE5PqEASKck-20" vertex="1" connectable="0">
          <mxGeometry x="-0.8137" y="-2" relative="1" as="geometry">
            <mxPoint x="12" y="-9" as="offset" />
          </mxGeometry>
        </mxCell>
        <mxCell id="Jd6QyhjHkUZVPCvQihyt-20" value="1" style="edgeLabel;html=1;align=center;verticalAlign=middle;resizable=0;points=[];" parent="CLvzxZcf5yE5PqEASKck-20" vertex="1" connectable="0">
          <mxGeometry x="-0.8137" y="-2" relative="1" as="geometry">
            <mxPoint x="182" y="-346" as="offset" />
          </mxGeometry>
        </mxCell>
        <mxCell id="CLvzxZcf5yE5PqEASKck-22" value="ShoppingItem" style="swimlane;fontStyle=1;align=center;verticalAlign=middle;childLayout=stackLayout;horizontal=1;startSize=29;horizontalStack=0;resizeParent=1;resizeParentMax=0;resizeLast=0;collapsible=0;marginBottom=0;html=1;fillColor=#ffe6cc;strokeColor=#d79b00;" parent="1" vertex="1">
          <mxGeometry x="230" y="872" width="100" height="53" as="geometry" />
        </mxCell>
        <mxCell id="CLvzxZcf5yE5PqEASKck-23" style="edgeStyle=orthogonalEdgeStyle;rounded=0;orthogonalLoop=1;jettySize=auto;html=1;endArrow=none;endFill=0;startArrow=diamondThin;startFill=0;dashed=1;exitX=0.5;exitY=1;exitDx=0;exitDy=0;entryX=0.25;entryY=1;entryDx=0;entryDy=0;" parent="1" source="CLvzxZcf5yE5PqEASKck-22" target="CLvzxZcf5yE5PqEASKck-10" edge="1">
          <mxGeometry relative="1" as="geometry">
            <mxPoint x="280" y="898" as="sourcePoint" />
            <Array as="points">
              <mxPoint x="280" y="968" />
              <mxPoint x="705" y="968" />
            </Array>
          </mxGeometry>
        </mxCell>
        <mxCell id="CLvzxZcf5yE5PqEASKck-24" value="1...1" style="edgeLabel;html=1;align=center;verticalAlign=middle;resizable=0;points=[];" parent="CLvzxZcf5yE5PqEASKck-23" vertex="1" connectable="0">
          <mxGeometry x="-0.9459" y="-1" relative="1" as="geometry">
            <mxPoint x="411" y="-41" as="offset" />
          </mxGeometry>
        </mxCell>
        <mxCell id="CLvzxZcf5yE5PqEASKck-25" style="edgeStyle=orthogonalEdgeStyle;rounded=0;orthogonalLoop=1;jettySize=auto;html=1;endArrow=none;endFill=0;startArrow=diamondThin;startFill=0;" parent="1" source="CLvzxZcf5yE5PqEASKck-19" target="CLvzxZcf5yE5PqEASKck-22" edge="1">
          <mxGeometry relative="1" as="geometry">
            <Array as="points">
              <mxPoint x="280" y="858" />
              <mxPoint x="280" y="858" />
            </Array>
            <mxPoint x="700.0344827586207" y="845" as="targetPoint" />
          </mxGeometry>
        </mxCell>
        <mxCell id="CLvzxZcf5yE5PqEASKck-26" value="0...n" style="edgeLabel;html=1;align=center;verticalAlign=middle;resizable=0;points=[];" parent="CLvzxZcf5yE5PqEASKck-25" connectable="0" vertex="1">
          <mxGeometry x="0.6727" y="-1" relative="1" as="geometry">
            <mxPoint x="14" y="8" as="offset" />
          </mxGeometry>
        </mxCell>
        <mxCell id="CLvzxZcf5yE5PqEASKck-27" value="TransactionItem" style="swimlane;fontStyle=1;align=center;verticalAlign=middle;childLayout=stackLayout;horizontal=1;startSize=29;horizontalStack=0;resizeParent=1;resizeParentMax=0;resizeLast=0;collapsible=0;marginBottom=0;html=1;fillColor=#ffe6cc;strokeColor=#d79b00;" parent="1" vertex="1">
          <mxGeometry x="497.25" y="858" width="100" height="52" as="geometry" />
        </mxCell>
        <mxCell id="CLvzxZcf5yE5PqEASKck-28" style="edgeStyle=orthogonalEdgeStyle;rounded=0;orthogonalLoop=1;jettySize=auto;html=1;startArrow=diamondThin;startFill=1;endArrow=none;endFill=0;exitX=0.5;exitY=1;exitDx=0;exitDy=0;" parent="1" source="CLvzxZcf5yE5PqEASKck-5" target="CLvzxZcf5yE5PqEASKck-27" edge="1">
          <mxGeometry relative="1" as="geometry">
            <mxPoint x="689.9999999999998" y="803" as="sourcePoint" />
          </mxGeometry>
        </mxCell>
        <mxCell id="CLvzxZcf5yE5PqEASKck-29" value="1..n" style="edgeLabel;html=1;align=center;verticalAlign=middle;resizable=0;points=[];" parent="CLvzxZcf5yE5PqEASKck-28" connectable="0" vertex="1">
          <mxGeometry x="0.6839" y="1" relative="1" as="geometry">
            <mxPoint x="11" y="1" as="offset" />
          </mxGeometry>
        </mxCell>
        <mxCell id="dIHybOWJR_WHU6xol9Fc-9" value="1" style="edgeLabel;html=1;align=center;verticalAlign=middle;resizable=0;points=[];" parent="CLvzxZcf5yE5PqEASKck-28" vertex="1" connectable="0">
          <mxGeometry x="-0.8302" relative="1" as="geometry">
            <mxPoint x="-7" y="2" as="offset" />
          </mxGeometry>
        </mxCell>
        <mxCell id="CLvzxZcf5yE5PqEASKck-30" value="&lt;b&gt;External Services&lt;/b&gt;" style="shape=umlFrame;whiteSpace=wrap;html=1;width=120;height=30;fillColor=#E1D5E7;strokeColor=#9673a6;fillStyle=solid;labelBackgroundColor=none;" parent="1" vertex="1">
          <mxGeometry x="1370" y="61" width="470" height="423" as="geometry" />
        </mxCell>
        <mxCell id="CLvzxZcf5yE5PqEASKck-46" style="rounded=0;orthogonalLoop=1;jettySize=auto;html=1;endArrow=none;endFill=0;" parent="1" edge="1">
          <mxGeometry relative="1" as="geometry">
            <mxPoint x="1170" y="823" as="sourcePoint" />
            <mxPoint x="1170" y="870" as="targetPoint" />
          </mxGeometry>
        </mxCell>
        <mxCell id="CLvzxZcf5yE5PqEASKck-47" value="1" style="edgeLabel;html=1;align=center;verticalAlign=middle;resizable=0;points=[];" parent="CLvzxZcf5yE5PqEASKck-46" vertex="1" connectable="0">
          <mxGeometry x="-0.8102" relative="1" as="geometry">
            <mxPoint x="7" y="4" as="offset" />
          </mxGeometry>
        </mxCell>
        <mxCell id="CLvzxZcf5yE5PqEASKck-103" value="1" style="edgeLabel;html=1;align=center;verticalAlign=middle;resizable=0;points=[];" parent="CLvzxZcf5yE5PqEASKck-46" vertex="1" connectable="0">
          <mxGeometry x="0.7302" y="1" relative="1" as="geometry">
            <mxPoint x="-141" y="-74" as="offset" />
          </mxGeometry>
        </mxCell>
        <mxCell id="CLvzxZcf5yE5PqEASKck-48" style="edgeStyle=orthogonalEdgeStyle;rounded=0;orthogonalLoop=1;jettySize=auto;html=1;endArrow=none;endFill=0;entryX=0.25;entryY=1;entryDx=0;entryDy=0;" parent="1" source="CLvzxZcf5yE5PqEASKck-79" target="CLvzxZcf5yE5PqEASKck-6" edge="1">
          <mxGeometry relative="1" as="geometry">
            <Array as="points">
              <mxPoint x="850" y="840" />
              <mxPoint x="985" y="840" />
            </Array>
            <mxPoint x="1090" y="773" as="targetPoint" />
          </mxGeometry>
        </mxCell>
        <mxCell id="CLvzxZcf5yE5PqEASKck-49" value="1.. n" style="edgeLabel;html=1;align=center;verticalAlign=middle;resizable=0;points=[];" parent="CLvzxZcf5yE5PqEASKck-48" vertex="1" connectable="0">
          <mxGeometry x="-0.6394" y="-1" relative="1" as="geometry">
            <mxPoint x="-19" y="51" as="offset" />
          </mxGeometry>
        </mxCell>
        <mxCell id="CLvzxZcf5yE5PqEASKck-102" value="1" style="edgeLabel;html=1;align=center;verticalAlign=middle;resizable=0;points=[];" parent="CLvzxZcf5yE5PqEASKck-48" vertex="1" connectable="0">
          <mxGeometry x="0.8286" y="1" relative="1" as="geometry">
            <mxPoint x="6" y="-8" as="offset" />
          </mxGeometry>
        </mxCell>
        <mxCell id="CLvzxZcf5yE5PqEASKck-51" value="&lt;br&gt;&lt;pre&gt;&lt;code class=&quot;!whitespace-pre hljs language-rust&quot;&gt;OCL 3:&lt;br&gt;context ShoppingCart&lt;br&gt;inv max_one_basket_per_store:&lt;br&gt;    &lt;span class=&quot;hljs-keyword&quot;&gt;self&lt;/span&gt;.baskets&lt;span class=&quot;hljs-punctuation&quot;&gt;-&amp;gt;&lt;/span&gt;&lt;span class=&quot;hljs-title function_ invoke__&quot;&gt;forAll&lt;br&gt;&lt;/span&gt;&lt;span style=&quot;white-space: pre;&quot;&gt; &lt;span style=&quot;white-space: pre;&quot;&gt; &lt;/span&gt;&lt;/span&gt;(b1, b2 | b1.store &lt;br/&gt;&lt;span style=&quot;white-space: pre;&quot;&gt; &lt;/span&gt;    &amp;lt;&amp;gt; b2.store or&lt;br&gt; &lt;span style=&quot;white-space: pre;&quot;&gt; &lt;/span&gt;&lt;span style=&quot;white-space: pre;&quot;&gt; &lt;/span&gt;b1 = b2)&lt;/code&gt;&lt;/pre&gt;" style="shape=note;whiteSpace=wrap;html=1;backgroundOutline=1;darkOpacity=0.05;align=left;fillColor=#fff2cc;strokeColor=#d6b656;" parent="1" vertex="1">
          <mxGeometry x="60" y="570" width="210" height="128" as="geometry" />
        </mxCell>
        <mxCell id="CLvzxZcf5yE5PqEASKck-52" value="StorePermission" style="swimlane;fontStyle=1;align=center;verticalAlign=middle;childLayout=stackLayout;horizontal=1;startSize=29;horizontalStack=0;resizeParent=1;resizeParentMax=0;resizeLast=0;collapsible=0;marginBottom=0;html=1;whiteSpace=wrap;fillColor=#ffe6cc;strokeColor=#d79b00;" parent="1" vertex="1">
          <mxGeometry x="1131" y="550" width="109" height="55" as="geometry" />
        </mxCell>
        <mxCell id="CLvzxZcf5yE5PqEASKck-53" value="&lt;b&gt;Manager&lt;/b&gt;" style="shape=umlFrame;whiteSpace=wrap;html=1;pointerEvents=0;width=70;height=20;" parent="1" vertex="1">
          <mxGeometry x="660" y="440" width="660" height="200" as="geometry" />
        </mxCell>
        <mxCell id="CLvzxZcf5yE5PqEASKck-54" value="StoreManager" style="swimlane;fontStyle=1;align=center;verticalAlign=middle;childLayout=stackLayout;horizontal=1;startSize=29;horizontalStack=0;resizeParent=1;resizeParentMax=0;resizeLast=0;collapsible=0;marginBottom=0;html=1;whiteSpace=wrap;fillColor=#ffe6cc;strokeColor=#d79b00;" parent="1" vertex="1">
          <mxGeometry x="909" y="533" width="149.5" height="55" as="geometry" />
        </mxCell>
        <mxCell id="CLvzxZcf5yE5PqEASKck-55" style="edgeStyle=orthogonalEdgeStyle;rounded=0;orthogonalLoop=1;jettySize=auto;html=1;endArrow=diamondThin;endFill=1;exitX=0.25;exitY=0;exitDx=0;exitDy=0;entryX=0.845;entryY=-0.006;entryDx=0;entryDy=0;entryPerimeter=0;" parent="1" source="CLvzxZcf5yE5PqEASKck-54" target="CLvzxZcf5yE5PqEASKck-54" edge="1">
          <mxGeometry relative="1" as="geometry">
            <Array as="points">
              <mxPoint x="946" y="490" />
              <mxPoint x="1035" y="490" />
            </Array>
            <mxPoint x="1030" y="540" as="targetPoint" />
          </mxGeometry>
        </mxCell>
        <mxCell id="CLvzxZcf5yE5PqEASKck-56" value="0...n" style="edgeLabel;html=1;align=center;verticalAlign=middle;resizable=0;points=[];" parent="CLvzxZcf5yE5PqEASKck-55" vertex="1" connectable="0">
          <mxGeometry x="-0.0391" y="-2" relative="1" as="geometry">
            <mxPoint x="-26" y="32" as="offset" />
          </mxGeometry>
        </mxCell>
        <mxCell id="CLvzxZcf5yE5PqEASKck-57" value="ParentManager" style="edgeLabel;html=1;align=left;verticalAlign=middle;resizable=0;points=[];" parent="CLvzxZcf5yE5PqEASKck-55" vertex="1" connectable="0">
          <mxGeometry x="-0.7228" relative="1" as="geometry">
            <mxPoint x="2" y="-9" as="offset" />
          </mxGeometry>
        </mxCell>
        <mxCell id="WTCKcHd4t-KQesIwXJe5-6" value="Delivery Provider" style="edgeLabel;html=1;align=left;verticalAlign=middle;resizable=0;points=[];" parent="CLvzxZcf5yE5PqEASKck-55" vertex="1" connectable="0">
          <mxGeometry x="-0.7228" relative="1" as="geometry">
            <mxPoint x="624" y="-258" as="offset" />
          </mxGeometry>
        </mxCell>
        <mxCell id="CLvzxZcf5yE5PqEASKck-62" value="Constraint: tree structure, avoid illegal connections, enforce existence of at least 1 owner for an operating store" style="shape=note2;boundedLbl=1;whiteSpace=wrap;html=1;size=25;verticalAlign=top;align=left;fillColor=#fff2cc;strokeColor=#d6b656;" parent="1" vertex="1">
          <mxGeometry x="923.75" y="340" width="120" height="130" as="geometry" />
        </mxCell>
        <mxCell id="CLvzxZcf5yE5PqEASKck-63" style="edgeStyle=orthogonalEdgeStyle;rounded=0;orthogonalLoop=1;jettySize=auto;html=1;endArrow=none;endFill=0;dashed=1;" parent="1" target="CLvzxZcf5yE5PqEASKck-54" edge="1">
          <mxGeometry relative="1" as="geometry">
            <mxPoint x="1065" y="568" as="targetPoint" />
            <Array as="points">
              <mxPoint x="880" y="560" />
              <mxPoint x="880" y="560" />
            </Array>
            <mxPoint x="830" y="560" as="sourcePoint" />
          </mxGeometry>
        </mxCell>
        <mxCell id="CLvzxZcf5yE5PqEASKck-69" value="Member" style="swimlane;fontStyle=1;align=center;verticalAlign=middle;childLayout=stackLayout;horizontal=1;startSize=29;horizontalStack=0;resizeParent=1;resizeParentMax=0;resizeLast=0;collapsible=0;marginBottom=0;html=1;fillColor=#ffe6cc;strokeColor=#d79b00;" parent="1" vertex="1">
          <mxGeometry x="570" y="348" width="120" height="60" as="geometry" />
        </mxCell>
        <mxCell id="CLvzxZcf5yE5PqEASKck-73" style="rounded=0;orthogonalLoop=1;jettySize=auto;html=1;endArrow=none;endFill=0;entryX=0.827;entryY=-0.001;entryDx=0;entryDy=0;entryPerimeter=0;" parent="1" source="CLvzxZcf5yE5PqEASKck-74" target="CLvzxZcf5yE5PqEASKck-69" edge="1">
          <mxGeometry relative="1" as="geometry">
            <mxPoint x="670" y="340" as="targetPoint" />
          </mxGeometry>
        </mxCell>
        <mxCell id="CLvzxZcf5yE5PqEASKck-74" value="Role: &lt;br&gt;Member, Administrator" style="html=1;whiteSpace=wrap;" parent="1" vertex="1">
          <mxGeometry x="610" y="210" width="110" height="50" as="geometry" />
        </mxCell>
        <mxCell id="CLvzxZcf5yE5PqEASKck-75" value="&lt;pre&gt;&lt;code class=&quot;!whitespace-pre hljs language-rust&quot;&gt;OCL 1:&lt;br&gt;inv at_least_one_admin:&lt;br&gt;    self.members&lt;span class=&quot;hljs-punctuation&quot;&gt;-&amp;gt;&lt;/span&gt;&lt;span class=&quot;hljs-title function_ invoke__&quot;&gt;exists&lt;/span&gt;&lt;/code&gt;&lt;/pre&gt;&lt;pre&gt;&lt;code class=&quot;!whitespace-pre hljs language-rust&quot;&gt;&lt;span style=&quot;white-space: pre;&quot;&gt; &lt;/span&gt;(m | m.Role = Administrator)&lt;/code&gt;&lt;/pre&gt;" style="shape=note;whiteSpace=wrap;html=1;backgroundOutline=1;darkOpacity=0.05;align=left;fillColor=#fff2cc;strokeColor=#d6b656;" parent="1" vertex="1">
          <mxGeometry x="741.25" y="210" width="238.75" height="70" as="geometry" />
        </mxCell>
        <mxCell id="CLvzxZcf5yE5PqEASKck-76" value="ShoppingCart" style="swimlane;fontStyle=1;align=center;verticalAlign=middle;childLayout=stackLayout;horizontal=1;startSize=29;horizontalStack=0;resizeParent=1;resizeParentMax=0;resizeLast=0;collapsible=0;marginBottom=0;html=1;fillColor=#ffe6cc;strokeColor=#d79b00;" parent="1" vertex="1">
          <mxGeometry x="150" y="490" width="210" height="55" as="geometry" />
        </mxCell>
        <mxCell id="CLvzxZcf5yE5PqEASKck-77" style="edgeStyle=orthogonalEdgeStyle;rounded=0;orthogonalLoop=1;jettySize=auto;html=1;endArrow=none;endFill=0;startArrow=diamondThin;startFill=1;dashed=1;exitX=0.25;exitY=1;exitDx=0;exitDy=0;" parent="1" source="CLvzxZcf5yE5PqEASKck-69" target="CLvzxZcf5yE5PqEASKck-76" edge="1">
          <mxGeometry relative="1" as="geometry">
            <Array as="points">
              <mxPoint x="600" y="460" />
              <mxPoint x="358" y="460" />
            </Array>
            <mxPoint x="275" y="528" as="targetPoint" />
          </mxGeometry>
        </mxCell>
        <mxCell id="CLvzxZcf5yE5PqEASKck-78" value="1 .. 1" style="edgeLabel;html=1;align=center;verticalAlign=middle;resizable=0;points=[];" parent="CLvzxZcf5yE5PqEASKck-77" vertex="1" connectable="0">
          <mxGeometry x="0.9533" y="1" relative="1" as="geometry">
            <mxPoint x="-19" as="offset" />
          </mxGeometry>
        </mxCell>
        <mxCell id="dIHybOWJR_WHU6xol9Fc-22" value="1 .. 1" style="edgeLabel;html=1;align=center;verticalAlign=middle;resizable=0;points=[];" parent="CLvzxZcf5yE5PqEASKck-77" vertex="1" connectable="0">
          <mxGeometry x="-0.8849" relative="1" as="geometry">
            <mxPoint x="-21" y="-7" as="offset" />
          </mxGeometry>
        </mxCell>
        <mxCell id="CLvzxZcf5yE5PqEASKck-79" value="PurchaseRule" style="swimlane;fontStyle=1;align=center;verticalAlign=middle;childLayout=stackLayout;horizontal=1;startSize=29;horizontalStack=0;resizeParent=1;resizeParentMax=0;resizeLast=0;collapsible=0;marginBottom=0;html=1;fillColor=#ffe6cc;strokeColor=#d79b00;" parent="1" vertex="1">
          <mxGeometry x="790" y="880" width="119" height="55" as="geometry" />
        </mxCell>
        <mxCell id="CLvzxZcf5yE5PqEASKck-80" value="DiscountType" style="swimlane;fontStyle=1;align=center;verticalAlign=middle;childLayout=stackLayout;horizontal=1;startSize=29;horizontalStack=0;resizeParent=1;resizeParentMax=0;resizeLast=0;collapsible=0;marginBottom=0;html=1;fillColor=#ffe6cc;strokeColor=#d79b00;" parent="1" vertex="1">
          <mxGeometry x="1120" y="769" width="105" height="54" as="geometry" />
        </mxCell>
        <mxCell id="CLvzxZcf5yE5PqEASKck-108" value="Market" style="swimlane;fontStyle=1;align=center;verticalAlign=middle;childLayout=stackLayout;horizontal=1;startSize=40;horizontalStack=0;resizeParent=1;resizeParentMax=0;resizeLast=0;collapsible=0;marginBottom=0;html=1;fillColor=#d5e8d4;strokeColor=#82b366;fontSize=16;" parent="1" vertex="1">
          <mxGeometry x="720" y="70" width="180" height="80" as="geometry" />
        </mxCell>
        <mxCell id="Ha9zelG3oU2tV3AhwNEj-2" value="" style="endArrow=open;html=1;rounded=0;dashed=1;entryX=0.01;entryY=0.145;entryDx=0;entryDy=0;edgeStyle=orthogonalEdgeStyle;endFill=0;entryPerimeter=0;" parent="1" source="CLvzxZcf5yE5PqEASKck-19" target="CLvzxZcf5yE5PqEASKck-6" edge="1">
          <mxGeometry relative="1" as="geometry">
            <mxPoint x="350" y="729" as="sourcePoint" />
            <mxPoint x="700" y="730" as="targetPoint" />
            <Array as="points">
              <mxPoint x="500" y="729" />
              <mxPoint x="500" y="729" />
            </Array>
          </mxGeometry>
        </mxCell>
        <mxCell id="Ha9zelG3oU2tV3AhwNEj-3" value="1" style="resizable=0;html=1;whiteSpace=wrap;align=right;verticalAlign=bottom;" parent="Ha9zelG3oU2tV3AhwNEj-2" connectable="0" vertex="1">
          <mxGeometry x="1" relative="1" as="geometry">
            <mxPoint x="-5" y="-3" as="offset" />
          </mxGeometry>
        </mxCell>
        <mxCell id="Ha9zelG3oU2tV3AhwNEj-4" value="" style="resizable=0;html=1;whiteSpace=wrap;align=right;verticalAlign=bottom;" parent="1" connectable="0" vertex="1">
          <mxGeometry x="1070" y="727.7999981751823" as="geometry">
            <mxPoint x="-682" y="-64" as="offset" />
          </mxGeometry>
        </mxCell>
        <mxCell id="ggJYoar1Brt_5jLOgCQw-3" value="Delivery&lt;br&gt;Adaptee" style="endArrow=block;endFill=1;html=1;align=left;verticalAlign=top;rounded=0;exitX=1;exitY=0.5;exitDx=0;exitDy=0;entryX=0;entryY=0.5;entryDx=0;entryDy=0;" parent="1" target="ggJYoar1Brt_5jLOgCQw-1" edge="1">
          <mxGeometry x="-1" y="-3" relative="1" as="geometry">
            <mxPoint x="1829" y="111" as="sourcePoint" />
            <mxPoint x="1890" y="111" as="targetPoint" />
            <mxPoint as="offset" />
          </mxGeometry>
        </mxCell>
        <mxCell id="ggJYoar1Brt_5jLOgCQw-13" value="" style="group" parent="1" vertex="1" connectable="0">
          <mxGeometry x="1440" y="86" width="390" height="171" as="geometry" />
        </mxCell>
        <mxCell id="CLvzxZcf5yE5PqEASKck-45" value="RealDeliveryAdapter" style="swimlane;fontStyle=1;align=center;verticalAlign=top;childLayout=stackLayout;horizontal=1;startSize=26;horizontalStack=0;resizeParent=1;resizeParentMax=0;resizeLast=0;collapsible=1;marginBottom=0;fillColor=#e1d5e7;strokeColor=#9673a6;" parent="ggJYoar1Brt_5jLOgCQw-13" vertex="1">
          <mxGeometry x="230" width="160" height="50" as="geometry" />
        </mxCell>
        <mxCell id="CLvzxZcf5yE5PqEASKck-85" value="«interface»&lt;br&gt;&lt;b&gt;IDelivery&lt;/b&gt;" style="html=1;whiteSpace=wrap;" parent="ggJYoar1Brt_5jLOgCQw-13" vertex="1">
          <mxGeometry y="66" width="110" height="50" as="geometry" />
        </mxCell>
        <mxCell id="CLvzxZcf5yE5PqEASKck-100" style="rounded=0;orthogonalLoop=1;jettySize=auto;html=1;endArrow=open;endFill=0;startArrow=diamondThin;startFill=0;entryX=0.5;entryY=1;entryDx=0;entryDy=0;exitX=0.5;exitY=0;exitDx=0;exitDy=0;" parent="ggJYoar1Brt_5jLOgCQw-13" source="CLvzxZcf5yE5PqEASKck-92" target="CLvzxZcf5yE5PqEASKck-45" edge="1">
          <mxGeometry relative="1" as="geometry">
            <mxPoint x="310" y="58" as="targetPoint" />
          </mxGeometry>
        </mxCell>
        <mxCell id="CLvzxZcf5yE5PqEASKck-92" value="DeliveryProxy" style="swimlane;fontStyle=1;align=center;verticalAlign=top;childLayout=stackLayout;horizontal=1;startSize=26;horizontalStack=0;resizeParent=1;resizeParentMax=0;resizeLast=0;collapsible=1;marginBottom=0;fillColor=#e1d5e7;strokeColor=#9673a6;" parent="ggJYoar1Brt_5jLOgCQw-13" vertex="1">
          <mxGeometry x="230" y="121" width="160" height="50" as="geometry" />
        </mxCell>
        <mxCell id="ggJYoar1Brt_5jLOgCQw-6" value="" style="endArrow=block;dashed=1;endFill=0;endSize=12;html=1;rounded=0;entryX=1;entryY=0.5;entryDx=0;entryDy=0;exitX=0;exitY=0.5;exitDx=0;exitDy=0;" parent="ggJYoar1Brt_5jLOgCQw-13" source="CLvzxZcf5yE5PqEASKck-45" target="CLvzxZcf5yE5PqEASKck-85" edge="1">
          <mxGeometry width="160" relative="1" as="geometry">
            <mxPoint x="300" y="38" as="sourcePoint" />
            <mxPoint x="460" y="38" as="targetPoint" />
            <Array as="points">
              <mxPoint x="190" y="25" />
              <mxPoint x="190" y="68" />
              <mxPoint x="190" y="88" />
            </Array>
          </mxGeometry>
        </mxCell>
        <mxCell id="ggJYoar1Brt_5jLOgCQw-7" value="" style="endArrow=none;dashed=1;endFill=0;endSize=12;html=1;rounded=0;edgeStyle=orthogonalEdgeStyle;exitX=0;exitY=0.5;exitDx=0;exitDy=0;" parent="ggJYoar1Brt_5jLOgCQw-13" source="CLvzxZcf5yE5PqEASKck-92" edge="1">
          <mxGeometry width="160" relative="1" as="geometry">
            <mxPoint x="230" y="108" as="sourcePoint" />
            <mxPoint x="190" y="78" as="targetPoint" />
          </mxGeometry>
        </mxCell>
        <mxCell id="ggJYoar1Brt_5jLOgCQw-14" value="" style="group" parent="1" vertex="1" connectable="0">
          <mxGeometry x="1430" y="294" width="390" height="171" as="geometry" />
        </mxCell>
        <mxCell id="ggJYoar1Brt_5jLOgCQw-15" value="RealPaymentAdapter" style="swimlane;fontStyle=1;align=center;verticalAlign=top;childLayout=stackLayout;horizontal=1;startSize=26;horizontalStack=0;resizeParent=1;resizeParentMax=0;resizeLast=0;collapsible=1;marginBottom=0;fillColor=#e1d5e7;strokeColor=#9673a6;" parent="ggJYoar1Brt_5jLOgCQw-14" vertex="1">
          <mxGeometry x="230" width="160" height="50" as="geometry" />
        </mxCell>
        <mxCell id="ggJYoar1Brt_5jLOgCQw-16" value="«interface»&lt;br&gt;&lt;b&gt;IPayment&lt;/b&gt;" style="html=1;whiteSpace=wrap;" parent="ggJYoar1Brt_5jLOgCQw-14" vertex="1">
          <mxGeometry y="66" width="110" height="50" as="geometry" />
        </mxCell>
        <mxCell id="ggJYoar1Brt_5jLOgCQw-17" style="rounded=0;orthogonalLoop=1;jettySize=auto;html=1;endArrow=open;endFill=0;startArrow=diamondThin;startFill=0;entryX=0.5;entryY=1;entryDx=0;entryDy=0;exitX=0.5;exitY=0;exitDx=0;exitDy=0;" parent="ggJYoar1Brt_5jLOgCQw-14" source="ggJYoar1Brt_5jLOgCQw-18" target="ggJYoar1Brt_5jLOgCQw-15" edge="1">
          <mxGeometry relative="1" as="geometry">
            <mxPoint x="310" y="58" as="targetPoint" />
          </mxGeometry>
        </mxCell>
        <mxCell id="ggJYoar1Brt_5jLOgCQw-18" value="PaymentProxy" style="swimlane;fontStyle=1;align=center;verticalAlign=top;childLayout=stackLayout;horizontal=1;startSize=26;horizontalStack=0;resizeParent=1;resizeParentMax=0;resizeLast=0;collapsible=1;marginBottom=0;fillColor=#e1d5e7;strokeColor=#9673a6;" parent="ggJYoar1Brt_5jLOgCQw-14" vertex="1">
          <mxGeometry x="230" y="121" width="160" height="50" as="geometry" />
        </mxCell>
        <mxCell id="ggJYoar1Brt_5jLOgCQw-19" value="" style="endArrow=block;dashed=1;endFill=0;endSize=12;html=1;rounded=0;entryX=1;entryY=0.5;entryDx=0;entryDy=0;exitX=0;exitY=0.5;exitDx=0;exitDy=0;" parent="ggJYoar1Brt_5jLOgCQw-14" source="ggJYoar1Brt_5jLOgCQw-15" target="ggJYoar1Brt_5jLOgCQw-16" edge="1">
          <mxGeometry width="160" relative="1" as="geometry">
            <mxPoint x="300" y="38" as="sourcePoint" />
            <mxPoint x="460" y="38" as="targetPoint" />
            <Array as="points">
              <mxPoint x="190" y="25" />
              <mxPoint x="190" y="68" />
              <mxPoint x="190" y="88" />
            </Array>
          </mxGeometry>
        </mxCell>
        <mxCell id="ggJYoar1Brt_5jLOgCQw-20" value="" style="endArrow=none;dashed=1;endFill=0;endSize=12;html=1;rounded=0;edgeStyle=orthogonalEdgeStyle;exitX=0;exitY=0.5;exitDx=0;exitDy=0;" parent="ggJYoar1Brt_5jLOgCQw-14" source="ggJYoar1Brt_5jLOgCQw-18" edge="1">
          <mxGeometry width="160" relative="1" as="geometry">
            <mxPoint x="230" y="108" as="sourcePoint" />
            <mxPoint x="190" y="78" as="targetPoint" />
          </mxGeometry>
        </mxCell>
        <mxCell id="ggJYoar1Brt_5jLOgCQw-1" value="External Delivery&#xa;System" style="strokeColor=#dddddd;shadow=1;strokeWidth=1;rounded=1;absoluteArcSize=1;arcSize=2;" parent="1" vertex="1">
          <mxGeometry x="1880" y="88" width="130" height="44" as="geometry" />
        </mxCell>
        <mxCell id="ggJYoar1Brt_5jLOgCQw-30" value="External Payment&#xa;System" style="strokeColor=#dddddd;shadow=1;strokeWidth=1;rounded=1;absoluteArcSize=1;arcSize=2;" parent="1" vertex="1">
          <mxGeometry x="1880" y="304" width="130" height="44" as="geometry" />
        </mxCell>
        <mxCell id="ggJYoar1Brt_5jLOgCQw-31" value="Payment &lt;br&gt;Adaptee" style="endArrow=block;endFill=1;html=1;align=left;verticalAlign=top;rounded=0;edgeStyle=elbowEdgeStyle;elbow=vertical;entryX=0;entryY=0.5;entryDx=0;entryDy=0;" parent="1" edge="1">
          <mxGeometry x="-0.6628" y="-11" relative="1" as="geometry">
            <mxPoint x="1820" y="319" as="sourcePoint" />
            <mxPoint x="1880" y="319" as="targetPoint" />
            <mxPoint as="offset" />
          </mxGeometry>
        </mxCell>
        <mxCell id="pW84G5tZ_yXUKDiwQYsp-1" value="0 .. n" style="edgeLabel;html=1;align=center;verticalAlign=middle;resizable=0;points=[];" parent="1" vertex="1" connectable="0">
          <mxGeometry x="297" y="731.8" as="geometry">
            <mxPoint x="61" y="7" as="offset" />
          </mxGeometry>
        </mxCell>
        <mxCell id="WTCKcHd4t-KQesIwXJe5-2" value="" style="endArrow=classic;html=1;rounded=0;exitX=1;exitY=0.5;exitDx=0;exitDy=0;entryX=0;entryY=0.75;entryDx=0;entryDy=0;dashed=1;edgeStyle=orthogonalEdgeStyle;elbow=vertical;" parent="1" source="CLvzxZcf5yE5PqEASKck-108" target="CLvzxZcf5yE5PqEASKck-92" edge="1">
          <mxGeometry relative="1" as="geometry">
            <mxPoint x="1040" y="560" as="sourcePoint" />
            <mxPoint x="1700" y="810" as="targetPoint" />
            <Array as="points">
              <mxPoint x="1430" y="110" />
              <mxPoint x="1430" y="244" />
            </Array>
          </mxGeometry>
        </mxCell>
        <mxCell id="WTCKcHd4t-KQesIwXJe5-8" value="" style="endArrow=none;html=1;rounded=0;entryX=1;entryY=0.75;entryDx=0;entryDy=0;dashed=1;startArrow=classic;startFill=1;endFill=0;edgeStyle=orthogonalEdgeStyle;" parent="1" target="CLvzxZcf5yE5PqEASKck-108" edge="1">
          <mxGeometry relative="1" as="geometry">
            <mxPoint x="1660" y="460" as="sourcePoint" />
            <mxPoint x="1060" y="390" as="targetPoint" />
            <Array as="points">
              <mxPoint x="1660" y="460" />
              <mxPoint x="1400" y="460" />
              <mxPoint x="1400" y="130" />
            </Array>
          </mxGeometry>
        </mxCell>
        <mxCell id="WTCKcHd4t-KQesIwXJe5-10" value="Payment Provider" style="edgeLabel;resizable=0;html=1;align=left;verticalAlign=bottom;" parent="WTCKcHd4t-KQesIwXJe5-8" connectable="0" vertex="1">
          <mxGeometry x="-1" relative="1" as="geometry">
            <mxPoint x="-100" y="20" as="offset" />
          </mxGeometry>
        </mxCell>
        <mxCell id="WTCKcHd4t-KQesIwXJe5-12" value="Guest" style="swimlane;fontStyle=1;align=center;verticalAlign=middle;childLayout=stackLayout;horizontal=1;startSize=29;horizontalStack=0;resizeParent=1;resizeParentMax=0;resizeLast=0;collapsible=0;marginBottom=0;html=1;fillColor=#ffe6cc;strokeColor=#d79b00;" parent="1" vertex="1">
          <mxGeometry x="440" y="348" width="100" height="60" as="geometry" />
        </mxCell>
        <mxCell id="WTCKcHd4t-KQesIwXJe5-13" value="User" style="swimlane;fontStyle=1;align=center;verticalAlign=middle;childLayout=stackLayout;horizontal=1;startSize=30;horizontalStack=0;resizeParent=1;resizeParentMax=0;resizeLast=0;collapsible=0;marginBottom=0;html=1;fillColor=#ffe6cc;strokeColor=#d79b00;" parent="1" vertex="1">
          <mxGeometry x="465" y="205" width="120" height="60" as="geometry" />
        </mxCell>
        <mxCell id="WTCKcHd4t-KQesIwXJe5-14" value="" style="endArrow=block;endFill=0;endSize=12;html=1;rounded=0;exitX=0.25;exitY=0;exitDx=0;exitDy=0;edgeStyle=orthogonalEdgeStyle;" parent="1" source="WTCKcHd4t-KQesIwXJe5-12" edge="1">
          <mxGeometry width="160" relative="1" as="geometry">
            <mxPoint x="520" y="350" as="sourcePoint" />
            <mxPoint x="530" y="260" as="targetPoint" />
            <Array as="points">
              <mxPoint x="465" y="310" />
              <mxPoint x="530" y="310" />
            </Array>
          </mxGeometry>
        </mxCell>
        <mxCell id="WTCKcHd4t-KQesIwXJe5-16" value="" style="endArrow=none;endFill=0;endSize=12;html=1;rounded=0;edgeStyle=orthogonalEdgeStyle;entryX=0.5;entryY=0;entryDx=0;entryDy=0;" parent="1" target="CLvzxZcf5yE5PqEASKck-69" edge="1">
          <mxGeometry width="160" relative="1" as="geometry">
            <mxPoint x="500" y="310" as="sourcePoint" />
            <mxPoint x="600" y="330" as="targetPoint" />
            <Array as="points">
              <mxPoint x="630" y="310" />
            </Array>
          </mxGeometry>
        </mxCell>
        <mxCell id="WTCKcHd4t-KQesIwXJe5-18" value="" style="endArrow=none;endFill=0;endSize=12;html=1;rounded=0;entryX=0;entryY=0.5;entryDx=0;entryDy=0;" parent="1" target="CLvzxZcf5yE5PqEASKck-52" edge="1">
          <mxGeometry width="160" relative="1" as="geometry">
            <mxPoint x="1060" y="578" as="sourcePoint" />
            <mxPoint x="1250" y="670" as="targetPoint" />
          </mxGeometry>
        </mxCell>
        <mxCell id="WTCKcHd4t-KQesIwXJe5-19" value="ComplexPurchaseRule" style="swimlane;fontStyle=1;align=center;verticalAlign=middle;childLayout=stackLayout;horizontal=1;startSize=29;horizontalStack=0;resizeParent=1;resizeParentMax=0;resizeLast=0;collapsible=0;marginBottom=0;html=1;fillColor=#ffe6cc;strokeColor=#d79b00;" parent="1" vertex="1">
          <mxGeometry x="850" y="976" width="140" height="55" as="geometry" />
        </mxCell>
        <mxCell id="WTCKcHd4t-KQesIwXJe5-20" value="SimplePurchaseRule" style="swimlane;fontStyle=1;align=center;verticalAlign=middle;childLayout=stackLayout;horizontal=1;startSize=29;horizontalStack=0;resizeParent=1;resizeParentMax=0;resizeLast=0;collapsible=0;marginBottom=0;html=1;fillColor=#ffe6cc;strokeColor=#d79b00;" parent="1" vertex="1">
          <mxGeometry x="700" y="976" width="140" height="55" as="geometry" />
        </mxCell>
        <mxCell id="WTCKcHd4t-KQesIwXJe5-21" value="" style="endArrow=block;endFill=0;endSize=12;html=1;rounded=0;exitX=0.5;exitY=0;exitDx=0;exitDy=0;entryX=0.5;entryY=1;entryDx=0;entryDy=0;edgeStyle=orthogonalEdgeStyle;" parent="1" source="WTCKcHd4t-KQesIwXJe5-20" target="CLvzxZcf5yE5PqEASKck-79" edge="1">
          <mxGeometry width="160" relative="1" as="geometry">
            <mxPoint x="910" y="890" as="sourcePoint" />
            <mxPoint x="1070" y="890" as="targetPoint" />
            <Array as="points">
              <mxPoint x="770" y="960" />
              <mxPoint x="850" y="960" />
            </Array>
          </mxGeometry>
        </mxCell>
        <mxCell id="WTCKcHd4t-KQesIwXJe5-22" value="" style="endArrow=none;endFill=0;endSize=12;html=1;rounded=0;entryX=0.5;entryY=0;entryDx=0;entryDy=0;edgeStyle=orthogonalEdgeStyle;" parent="1" target="WTCKcHd4t-KQesIwXJe5-19" edge="1">
          <mxGeometry width="160" relative="1" as="geometry">
            <mxPoint x="850" y="960" as="sourcePoint" />
            <mxPoint x="1070" y="890" as="targetPoint" />
            <Array as="points">
              <mxPoint x="909" y="960" />
              <mxPoint x="920" y="960" />
            </Array>
          </mxGeometry>
        </mxCell>
        <mxCell id="WTCKcHd4t-KQesIwXJe5-24" value="0...n" style="endArrow=none;html=1;endSize=12;startArrow=diamondThin;startSize=14;startFill=0;edgeStyle=orthogonalEdgeStyle;rounded=0;entryX=1;entryY=0.75;entryDx=0;entryDy=0;endFill=0;exitX=0.75;exitY=0;exitDx=0;exitDy=0;" parent="1" source="WTCKcHd4t-KQesIwXJe5-19" target="CLvzxZcf5yE5PqEASKck-79" edge="1">
          <mxGeometry x="0.7818" y="-11" relative="1" as="geometry">
            <mxPoint x="1003" y="976" as="sourcePoint" />
            <mxPoint x="922" y="907.5" as="targetPoint" />
            <Array as="points">
              <mxPoint x="955" y="921" />
            </Array>
            <mxPoint as="offset" />
          </mxGeometry>
        </mxCell>
        <mxCell id="WTCKcHd4t-KQesIwXJe5-25" value="1" style="edgeLabel;resizable=0;html=1;align=left;verticalAlign=top;" parent="WTCKcHd4t-KQesIwXJe5-24" connectable="0" vertex="1">
          <mxGeometry x="-1" relative="1" as="geometry">
            <mxPoint x="-15" y="-23" as="offset" />
          </mxGeometry>
        </mxCell>
        <mxCell id="WTCKcHd4t-KQesIwXJe5-27" value="&lt;font style=&quot;font-size: 10px;&quot;&gt;parent&lt;/font&gt;" style="text;strokeColor=none;align=center;fillColor=none;html=1;verticalAlign=middle;whiteSpace=wrap;rounded=0;" parent="1" vertex="1">
          <mxGeometry x="947" y="952" width="60" height="30" as="geometry" />
        </mxCell>
        <mxCell id="WTCKcHd4t-KQesIwXJe5-28" value="&lt;font style=&quot;font-size: 10px;&quot;&gt;child&lt;/font&gt;" style="text;strokeColor=none;align=center;fillColor=none;html=1;verticalAlign=middle;whiteSpace=wrap;rounded=0;" parent="1" vertex="1">
          <mxGeometry x="895" y="913" width="60" height="30" as="geometry" />
        </mxCell>
        <mxCell id="WTCKcHd4t-KQesIwXJe5-29" value="ComplexDiscounrRule" style="swimlane;fontStyle=1;align=center;verticalAlign=middle;childLayout=stackLayout;horizontal=1;startSize=29;horizontalStack=0;resizeParent=1;resizeParentMax=0;resizeLast=0;collapsible=0;marginBottom=0;html=1;fillColor=#ffe6cc;strokeColor=#d79b00;" parent="1" vertex="1">
          <mxGeometry x="1155.5" y="976" width="134.5" height="55" as="geometry" />
        </mxCell>
        <mxCell id="WTCKcHd4t-KQesIwXJe5-30" value="SimpleDiscounrRule" style="swimlane;fontStyle=1;align=center;verticalAlign=middle;childLayout=stackLayout;horizontal=1;startSize=29;horizontalStack=0;resizeParent=1;resizeParentMax=0;resizeLast=0;collapsible=0;marginBottom=0;html=1;fillColor=#ffe6cc;strokeColor=#d79b00;" parent="1" vertex="1">
          <mxGeometry x="1007.5" y="976" width="125" height="55" as="geometry" />
        </mxCell>
        <mxCell id="WTCKcHd4t-KQesIwXJe5-31" value="" style="endArrow=block;startArrow=none;endFill=0;startFill=0;endSize=8;startSize=10;html=1;rounded=0;edgeStyle=orthogonalEdgeStyle;exitX=0.5;exitY=0;exitDx=0;exitDy=0;entryX=0.5;entryY=1;entryDx=0;entryDy=0;" parent="1" source="WTCKcHd4t-KQesIwXJe5-30" target="CLvzxZcf5yE5PqEASKck-13" edge="1">
          <mxGeometry width="160" relative="1" as="geometry">
            <mxPoint x="1130" y="870" as="sourcePoint" />
            <mxPoint x="1180" y="858" as="targetPoint" />
            <Array as="points">
              <mxPoint x="1070" y="950" />
              <mxPoint x="1155" y="950" />
            </Array>
          </mxGeometry>
        </mxCell>
        <mxCell id="WTCKcHd4t-KQesIwXJe5-32" value="" style="endArrow=none;endFill=0;endSize=12;html=1;rounded=0;edgeStyle=orthogonalEdgeStyle;exitX=0.5;exitY=0;exitDx=0;exitDy=0;" parent="1" source="WTCKcHd4t-KQesIwXJe5-29" edge="1">
          <mxGeometry width="160" relative="1" as="geometry">
            <mxPoint x="1270" y="870" as="sourcePoint" />
            <mxPoint x="1140" y="950" as="targetPoint" />
            <Array as="points">
              <mxPoint x="1223" y="950" />
              <mxPoint x="1120" y="950" />
            </Array>
          </mxGeometry>
        </mxCell>
        <mxCell id="WTCKcHd4t-KQesIwXJe5-33" value="" style="endArrow=none;html=1;endSize=12;startArrow=diamondThin;startSize=14;startFill=0;edgeStyle=orthogonalEdgeStyle;rounded=0;exitX=0.793;exitY=0.012;exitDx=0;exitDy=0;exitPerimeter=0;entryX=1;entryY=0.5;entryDx=0;entryDy=0;endFill=0;" parent="1" source="WTCKcHd4t-KQesIwXJe5-29" target="CLvzxZcf5yE5PqEASKck-13" edge="1">
          <mxGeometry x="-1" y="69" relative="1" as="geometry">
            <mxPoint x="1110" y="870" as="sourcePoint" />
            <mxPoint x="1270" y="870" as="targetPoint" />
            <Array as="points">
              <mxPoint x="1262" y="902" />
            </Array>
            <mxPoint x="55" y="67" as="offset" />
          </mxGeometry>
        </mxCell>
        <mxCell id="WTCKcHd4t-KQesIwXJe5-34" value="0..n" style="edgeLabel;resizable=0;html=1;align=left;verticalAlign=top;" parent="WTCKcHd4t-KQesIwXJe5-33" connectable="0" vertex="1">
          <mxGeometry x="-1" relative="1" as="geometry">
            <mxPoint x="-53" y="-99" as="offset" />
          </mxGeometry>
        </mxCell>
        <mxCell id="WTCKcHd4t-KQesIwXJe5-35" value="1" style="edgeLabel;resizable=0;html=1;align=right;verticalAlign=top;" parent="WTCKcHd4t-KQesIwXJe5-33" connectable="0" vertex="1">
          <mxGeometry x="1" relative="1" as="geometry">
            <mxPoint x="50" y="53" as="offset" />
          </mxGeometry>
        </mxCell>
        <mxCell id="WTCKcHd4t-KQesIwXJe5-36" value="&lt;font style=&quot;font-size: 10px;&quot;&gt;parent&lt;/font&gt;" style="text;strokeColor=none;align=center;fillColor=none;html=1;verticalAlign=middle;whiteSpace=wrap;rounded=0;" parent="1" vertex="1">
          <mxGeometry x="1254" y="950" width="60" height="30" as="geometry" />
        </mxCell>
        <mxCell id="WTCKcHd4t-KQesIwXJe5-38" value="" style="html=1;verticalAlign=bottom;endArrow=none;dashed=1;endSize=8;edgeStyle=elbowEdgeStyle;elbow=vertical;curved=0;rounded=0;startArrow=none;startFill=0;endFill=0;entryX=0;entryY=0.5;entryDx=0;entryDy=0;" parent="1" target="CLvzxZcf5yE5PqEASKck-6" edge="1">
          <mxGeometry relative="1" as="geometry">
            <mxPoint x="601" y="760" as="sourcePoint" />
            <mxPoint x="960" y="776" as="targetPoint" />
            <Array as="points">
              <mxPoint x="640" y="760" />
              <mxPoint x="760" y="750" />
              <mxPoint x="870" y="820" />
              <mxPoint x="750" y="830" />
              <mxPoint x="790" y="820" />
              <mxPoint x="890" y="820" />
              <mxPoint x="680" y="790" />
              <mxPoint x="680" y="800" />
            </Array>
          </mxGeometry>
        </mxCell>
        <mxCell id="WTCKcHd4t-KQesIwXJe5-44" value="" style="endArrow=none;endFill=0;endSize=12;html=1;rounded=0;entryX=0.053;entryY=1.029;entryDx=0;entryDy=0;entryPerimeter=0;dashed=1;" parent="1" target="CLvzxZcf5yE5PqEASKck-75" edge="1">
          <mxGeometry width="160" relative="1" as="geometry">
            <mxPoint x="670" y="320" as="sourcePoint" />
            <mxPoint x="850" y="230" as="targetPoint" />
            <Array as="points" />
          </mxGeometry>
        </mxCell>
        <mxCell id="WTCKcHd4t-KQesIwXJe5-45" value="" style="endArrow=none;endFill=0;endSize=12;html=1;rounded=0;exitX=1;exitY=0.5;exitDx=0;exitDy=0;dashed=1;" parent="1" source="CLvzxZcf5yE5PqEASKck-54" target="CLvzxZcf5yE5PqEASKck-107" edge="1">
          <mxGeometry width="160" relative="1" as="geometry">
            <mxPoint x="1140" y="520" as="sourcePoint" />
            <mxPoint x="1300" y="520" as="targetPoint" />
          </mxGeometry>
        </mxCell>
        <mxCell id="CLvzxZcf5yE5PqEASKck-107" value="&lt;pre&gt;&lt;code class=&quot;!whitespace-pre hljs language-css&quot;&gt;OCL 4:&lt;br&gt;context ShopManager&lt;br&gt;inv distinct_members:&lt;br&gt;    self.allInstances()-&amp;gt;&lt;br&gt;&lt;span class=&quot;hljs-built_in&quot;&gt;&lt;span style=&quot;white-space: pre;&quot;&gt; &lt;/span&gt;forAll&lt;/span&gt;(s1, s2 | s1.member&lt;br/&gt;&lt;span style=&quot;white-space: pre;&quot;&gt; &lt;span style=&quot;white-space: pre;&quot;&gt; &lt;/span&gt;&lt;/span&gt;&amp;lt;&amp;gt; s2.member or s1 = s2)&lt;/code&gt;&lt;/pre&gt;" style="shape=note;whiteSpace=wrap;html=1;backgroundOutline=1;darkOpacity=0.05;align=left;fillColor=#fff2cc;strokeColor=#d6b656;" parent="1" vertex="1">
          <mxGeometry x="1070" y="390" width="270" height="100" as="geometry" />
        </mxCell>
        <mxCell id="WTCKcHd4t-KQesIwXJe5-48" value="" style="endArrow=none;endFill=0;endSize=12;html=1;rounded=0;dashed=1;" parent="1" target="CLvzxZcf5yE5PqEASKck-50" edge="1">
          <mxGeometry width="160" relative="1" as="geometry">
            <mxPoint x="650" y="730" as="sourcePoint" />
            <mxPoint x="830" y="700" as="targetPoint" />
          </mxGeometry>
        </mxCell>
        <mxCell id="WTCKcHd4t-KQesIwXJe5-49" value="" style="endArrow=none;endFill=0;endSize=12;html=1;rounded=0;dashed=1;" parent="1" source="CLvzxZcf5yE5PqEASKck-51" edge="1">
          <mxGeometry width="160" relative="1" as="geometry">
            <mxPoint x="80" y="530" as="sourcePoint" />
            <mxPoint x="280" y="640" as="targetPoint" />
          </mxGeometry>
        </mxCell>
        <mxCell id="Jd6QyhjHkUZVPCvQihyt-1" style="edgeStyle=orthogonalEdgeStyle;rounded=0;orthogonalLoop=1;jettySize=auto;html=1;exitX=0.5;exitY=1;exitDx=0;exitDy=0;" parent="1" source="CLvzxZcf5yE5PqEASKck-112" target="CLvzxZcf5yE5PqEASKck-112" edge="1">
          <mxGeometry relative="1" as="geometry" />
        </mxCell>
        <mxCell id="Jd6QyhjHkUZVPCvQihyt-8" value="" style="endArrow=none;endFill=0;endSize=12;html=1;rounded=0;dashed=1;entryX=0.391;entryY=1.026;entryDx=0;entryDy=0;entryPerimeter=0;" parent="1" target="CLvzxZcf5yE5PqEASKck-62" edge="1">
          <mxGeometry width="160" relative="1" as="geometry">
            <mxPoint x="980" y="490" as="sourcePoint" />
            <mxPoint x="1154" y="500" as="targetPoint" />
          </mxGeometry>
        </mxCell>
        <mxCell id="Jd6QyhjHkUZVPCvQihyt-13" style="edgeStyle=orthogonalEdgeStyle;rounded=0;orthogonalLoop=1;jettySize=auto;html=1;startArrow=diamondThin;startFill=1;endArrow=none;endFill=0;entryX=0.5;entryY=0;entryDx=0;entryDy=0;" parent="1" target="CLvzxZcf5yE5PqEASKck-10" edge="1">
          <mxGeometry relative="1" as="geometry">
            <mxPoint x="960" y="780" as="sourcePoint" />
            <mxPoint x="557" y="868" as="targetPoint" />
            <Array as="points">
              <mxPoint x="960" y="800" />
              <mxPoint x="730" y="800" />
            </Array>
          </mxGeometry>
        </mxCell>
        <mxCell id="Jd6QyhjHkUZVPCvQihyt-14" value="1..n" style="edgeLabel;html=1;align=center;verticalAlign=middle;resizable=0;points=[];" parent="Jd6QyhjHkUZVPCvQihyt-13" connectable="0" vertex="1">
          <mxGeometry x="0.6839" y="1" relative="1" as="geometry">
            <mxPoint x="-4" y="19" as="offset" />
          </mxGeometry>
        </mxCell>
        <mxCell id="Jd6QyhjHkUZVPCvQihyt-15" value="1" style="edgeLabel;html=1;align=center;verticalAlign=middle;resizable=0;points=[];" parent="Jd6QyhjHkUZVPCvQihyt-13" vertex="1" connectable="0">
          <mxGeometry x="-0.8302" relative="1" as="geometry">
            <mxPoint x="-6" y="-10" as="offset" />
          </mxGeometry>
        </mxCell>
        <mxCell id="Jd6QyhjHkUZVPCvQihyt-16" value="&lt;font style=&quot;font-size: 10px;&quot;&gt;child&lt;/font&gt;" style="text;strokeColor=none;align=center;fillColor=none;html=1;verticalAlign=middle;whiteSpace=wrap;rounded=0;" parent="1" vertex="1">
          <mxGeometry x="1192.75" y="901" width="60" height="30" as="geometry" />
        </mxCell>
        <mxCell id="CLvzxZcf5yE5PqEASKck-50" value="&lt;pre style=&quot;border-color: var(--border-color);&quot;&gt;&lt;code style=&quot;border-color: var(--border-color);&quot; class=&quot;!whitespace-pre hljs language-rust&quot;&gt;OCL 2:&lt;/code&gt;&lt;/pre&gt;&lt;pre&gt;&lt;code class=&quot;!whitespace-pre hljs language-rust&quot;&gt;context ShoppingBasket&lt;br&gt;inv items_from_same_store:&lt;br&gt;    &lt;span class=&quot;hljs-keyword&quot;&gt;self&lt;/span&gt;.items&lt;span class=&quot;hljs-punctuation&quot;&gt;-&amp;gt;&lt;br/&gt;&lt;/span&gt;&lt;span class=&quot;hljs-title function_ invoke__&quot;&gt;&lt;span style=&quot;white-space: pre;&quot;&gt; &lt;/span&gt;forAll&lt;/span&gt;(i | i.product.store = &lt;br&gt;&lt;span class=&quot;hljs-keyword&quot;&gt;&lt;span style=&quot;white-space: pre;&quot;&gt; &lt;span style=&quot;white-space: pre;&quot;&gt; &lt;span style=&quot;white-space: pre;&quot;&gt; &lt;/span&gt;&lt;/span&gt;&lt;/span&gt;self&lt;/span&gt;.items&lt;span class=&quot;hljs-punctuation&quot;&gt;-&amp;gt;&lt;br/&gt;&lt;/span&gt;&lt;span class=&quot;hljs-title function_ invoke__&quot;&gt;&lt;span style=&quot;white-space: pre;&quot;&gt; &lt;/span&gt;&lt;span style=&quot;white-space: pre;&quot;&gt; &lt;/span&gt;first&lt;/span&gt;().product.store&lt;br&gt;&lt;/code&gt;)&lt;/pre&gt;" style="shape=note;whiteSpace=wrap;html=1;backgroundOutline=1;darkOpacity=0.05;align=left;fillColor=#fff2cc;strokeColor=#d6b656;" parent="1" vertex="1">
          <mxGeometry x="410" y="494" width="210" height="136" as="geometry" />
        </mxCell>
        <mxCell id="y5rXsXzm8F1P4flBLBTH-2" value="Notification" style="swimlane;fontStyle=1;align=center;verticalAlign=middle;childLayout=stackLayout;horizontal=1;startSize=29;horizontalStack=0;resizeParent=1;resizeParentMax=0;resizeLast=0;collapsible=0;marginBottom=0;html=1;fillColor=#ffe6cc;strokeColor=#d79b00;" vertex="1" parent="1">
          <mxGeometry x="1020" y="244" width="120" height="60" as="geometry" />
        </mxCell>
        <mxCell id="y5rXsXzm8F1P4flBLBTH-3" value="" style="endArrow=none;html=1;rounded=0;exitX=1;exitY=0;exitDx=0;exitDy=0;entryX=0;entryY=0.75;entryDx=0;entryDy=0;endFill=0;" edge="1" parent="1" source="CLvzxZcf5yE5PqEASKck-69" target="y5rXsXzm8F1P4flBLBTH-2">
          <mxGeometry relative="1" as="geometry">
            <mxPoint x="730" y="300" as="sourcePoint" />
            <mxPoint x="890" y="300" as="targetPoint" />
          </mxGeometry>
        </mxCell>
        <mxCell id="y5rXsXzm8F1P4flBLBTH-5" value="1..n" style="edgeLabel;resizable=0;html=1;align=left;verticalAlign=bottom;" connectable="0" vertex="1" parent="y5rXsXzm8F1P4flBLBTH-3">
          <mxGeometry x="-1" relative="1" as="geometry">
            <mxPoint y="15" as="offset" />
          </mxGeometry>
        </mxCell>
        <mxCell id="y5rXsXzm8F1P4flBLBTH-6" value="0...n" style="edgeLabel;resizable=0;html=1;align=right;verticalAlign=bottom;" connectable="0" vertex="1" parent="y5rXsXzm8F1P4flBLBTH-3">
          <mxGeometry x="1" relative="1" as="geometry" />
        </mxCell>
        <mxCell id="y5rXsXzm8F1P4flBLBTH-8" value="RuleType" style="swimlane;fontStyle=1;align=center;verticalAlign=middle;childLayout=stackLayout;horizontal=1;startSize=29;horizontalStack=0;resizeParent=1;resizeParentMax=0;resizeLast=0;collapsible=0;marginBottom=0;html=1;fillColor=#ffe6cc;strokeColor=#d79b00;" vertex="1" parent="1">
          <mxGeometry x="965" y="856" width="105" height="54" as="geometry" />
        </mxCell>
        <mxCell id="y5rXsXzm8F1P4flBLBTH-9" value="" style="endArrow=none;html=1;rounded=0;entryX=0;entryY=0.75;entryDx=0;entryDy=0;endFill=0;" edge="1" parent="1" target="y5rXsXzm8F1P4flBLBTH-8">
          <mxGeometry relative="1" as="geometry">
            <mxPoint x="910" y="897" as="sourcePoint" />
            <mxPoint x="970" y="880" as="targetPoint" />
          </mxGeometry>
        </mxCell>
        <mxCell id="y5rXsXzm8F1P4flBLBTH-11" value="1" style="edgeLabel;resizable=0;html=1;align=left;verticalAlign=bottom;" connectable="0" vertex="1" parent="y5rXsXzm8F1P4flBLBTH-9">
          <mxGeometry x="-1" relative="1" as="geometry">
            <mxPoint x="42" y="-3" as="offset" />
          </mxGeometry>
        </mxCell>
      </root>
    </mxGraphModel>
  </diagram>
</mxfile>
